<?xml version="1.0" standalone="no"?>
<!DOCTYPE svg PUBLIC "-//W3C//DTD SVG 20010904//EN"
 "http://www.w3.org/TR/2001/REC-SVG-20010904/DTD/svg10.dtd">
<svg version="1.0" xmlns="http://www.w3.org/2000/svg"
 width="368.000000pt" height="368.000000pt" viewBox="0 0 368.000000 368.000000"
 preserveAspectRatio="xMidYMid meet">
<metadata>
Created by potrace 1.14, written by Peter Selinger 2001-2017
</metadata>
<g transform="translate(0.000000,368.000000) scale(0.100000,-0.100000)"
fill="#000000" stroke="none">
<path d="M1857 3084 c-1 -2 -18 -6 -37 -9 -50 -8 -123 -23 -145 -29 -5 -2 -31
-9 -57 -17 -27 -7 -48 -17 -48 -22 0 -4 -4 -6 -8 -3 -15 9 -235 -110 -254
-138 -5 -6 -8 -7 -8 -1 0 6 -5 2 -11 -7 -5 -10 -17 -18 -24 -18 -8 0 -15 -4
-15 -10 0 -5 -7 -10 -16 -10 -8 0 -12 -4 -9 -10 3 -5 2 -10 -4 -10 -12 0 -151
-139 -151 -151 0 -5 -7 -9 -15 -9 -8 0 -14 -3 -13 -7 2 -5 -17 -36 -41 -70
-24 -33 -43 -64 -41 -68 1 -4 -3 -11 -8 -14 -13 -8 -74 -131 -66 -131 4 0 0
-8 -8 -17 -13 -16 -39 -91 -36 -103 1 -3 -4 -15 -10 -27 -7 -12 -14 -39 -17
-60 -3 -21 -8 -45 -11 -53 -16 -45 -23 -299 -11 -385 5 -36 15 -94 22 -120 7
-31 17 -72 21 -85 3 -8 5 -16 4 -18 0 -1 6 -15 14 -31 9 -16 12 -31 9 -35 -4
-3 0 -6 7 -6 7 0 11 -3 7 -6 -3 -3 3 -21 14 -40 10 -19 19 -41 19 -48 0 -8 3
-16 8 -18 4 -2 19 -28 35 -58 15 -30 27 -50 28 -45 0 6 5 -1 10 -15 11 -26 6
-32 -51 -70 -13 -8 -36 -26 -51 -38 -16 -13 -29 -21 -29 -17 0 3 -7 -1 -16
-10 -24 -24 -131 -95 -143 -95 -6 0 -11 -4 -11 -8 0 -5 -18 -17 -40 -27 -22
-10 -40 -22 -40 -27 0 -4 -4 -8 -9 -8 -17 0 -116 -65 -119 -78 -1 -6 3 -12 9
-12 6 0 28 -18 50 -40 21 -21 39 -37 39 -35 0 3 25 -20 55 -50 30 -30 63 -55
74 -55 22 0 98 36 107 51 3 5 10 7 15 4 5 -4 9 -2 9 3 0 5 14 15 30 22 17 7
30 17 30 22 0 5 4 7 8 4 5 -3 18 4 30 14 12 11 24 20 28 20 4 0 21 10 38 23
17 13 39 26 49 30 9 3 17 11 17 17 0 5 5 10 10 10 6 0 39 20 74 45 68 47 93
50 125 11 7 -9 19 -16 27 -16 7 0 17 -7 22 -16 5 -9 11 -15 13 -13 2 1 22 -9
44 -22 77 -48 228 -110 297 -123 13 -3 23 -5 23 -6 0 -4 106 -21 164 -25 24
-2 46 -6 49 -9 3 -3 11 -1 18 5 8 7 14 7 19 -1 3 -6 11 -8 16 -5 17 11 49 14
54 5 3 -5 17 -5 32 1 20 7 28 6 35 -3 4 -7 8 -8 8 -3 0 9 26 15 78 18 6 0 12
3 12 6 0 3 20 6 45 6 25 0 45 2 45 6 0 6 110 34 123 31 4 -1 7 2 7 8 0 10 78
35 95 31 6 -1 7 0 3 4 -4 4 23 23 60 42 117 60 238 151 302 225 14 16 44 49
66 73 23 25 40 45 37 45 -3 0 9 17 25 38 16 20 32 46 35 57 6 19 2 20 -61 22
-37 1 -92 4 -122 8 -162 18 -218 17 -205 -4 8 -14 -100 -104 -190 -159 -33
-19 -63 -41 -67 -46 -4 -6 -8 -8 -8 -3 0 4 -13 1 -29 -8 -34 -17 -107 -43
-142 -49 -13 -3 -25 -5 -26 -7 -2 -1 -11 -2 -20 -3 -10 -1 -23 -4 -28 -8 -20
-12 -336 -1 -352 12 -2 2 -7 4 -13 5 -5 1 -11 3 -12 5 -2 1 -12 3 -23 4 -30 4
-185 77 -185 88 0 5 -4 7 -8 4 -5 -3 -18 5 -28 17 -19 22 -19 22 4 44 12 12
22 20 22 17 0 -4 14 9 32 27 17 19 35 33 40 31 4 -1 8 2 8 8 0 13 32 45 53 53
9 3 17 13 17 22 0 8 6 15 13 15 6 0 48 39 92 86 44 48 94 101 112 119 17 19
29 36 25 39 -3 3 -1 6 5 6 6 0 37 33 69 73 32 39 67 80 78 90 10 9 16 17 12
17 -4 0 5 12 19 28 15 15 45 53 67 85 23 31 45 57 51 57 6 0 7 3 4 7 -4 3 4
21 18 39 14 18 25 37 25 42 0 6 4 12 8 14 43 17 363 588 354 631 -1 4 3 7 8 7
6 0 10 5 10 11 0 10 33 90 50 121 11 19 3 51 -10 43 -5 -3 -12 4 -15 16 -4 11
-9 18 -12 15 -3 -2 -37 14 -76 38 -40 23 -88 48 -107 56 -19 7 -40 17 -46 22
-6 4 -23 9 -38 10 -14 1 -26 5 -26 9 0 7 -56 23 -77 22 -7 0 -13 3 -13 7 0 5
-8 8 -17 8 -10 0 -38 5 -63 11 -38 11 -345 23 -353 15z m130 -327 c6 -4 14 -3
17 1 4 7 61 9 61 2 0 -1 18 -3 40 -4 54 -4 158 -27 170 -38 5 -4 17 -8 26 -8
22 0 18 -28 -11 -77 -11 -19 -18 -39 -15 -44 4 -5 2 -9 -4 -9 -6 0 -18 -17
-28 -37 -9 -21 -21 -42 -25 -48 -5 -5 -43 -64 -84 -130 -42 -66 -80 -122 -85
-123 -5 -2 -7 -7 -4 -12 2 -4 -4 -15 -15 -25 -11 -10 -20 -24 -20 -32 0 -7 -4
-13 -10 -13 -5 0 -10 -6 -10 -14 0 -8 -7 -16 -15 -20 -8 -3 -15 -10 -15 -16 0
-6 -11 -23 -25 -38 -14 -15 -25 -32 -25 -38 0 -7 -7 -14 -15 -18 -8 -3 -15
-13 -15 -21 0 -9 -4 -14 -9 -10 -5 3 -12 -3 -15 -12 -3 -10 -23 -37 -43 -59
-21 -23 -65 -72 -98 -110 -83 -95 -353 -364 -366 -364 -5 0 -7 -4 -4 -10 3 -5
3 -10 -2 -10 -4 0 -22 -13 -39 -29 -17 -16 -36 -26 -41 -23 -17 11 -67 101
-90 162 -12 30 -25 64 -29 75 -4 11 -8 27 -9 37 -1 9 -6 25 -10 35 -18 42 -24
227 -12 333 7 63 10 75 24 110 6 14 9 28 6 33 -2 4 0 7 5 7 5 0 9 7 10 15 1 8
3 22 4 30 1 8 5 15 10 15 5 0 6 5 3 10 -3 6 -1 10 6 10 7 0 9 3 6 6 -4 4 3 20
14 35 11 16 17 29 12 29 -4 0 -3 4 2 8 6 4 18 21 27 37 10 17 22 29 28 27 7
-1 9 2 6 6 -3 5 4 21 17 34 88 97 135 143 152 148 6 1 16 11 23 21 7 11 17 19
22 19 9 0 73 40 98 61 7 5 21 11 32 12 11 1 20 5 20 9 0 4 9 8 20 8 11 0 20 5
20 12 0 6 3 9 6 5 4 -3 18 0 33 7 14 7 34 12 44 11 9 -2 17 0 17 4 0 4 10 8
23 9 27 1 111 13 114 16 6 5 59 -1 70 -7z"/>
<path d="M2873 2692 c-7 -4 -14 -19 -17 -34 -2 -14 -9 -36 -16 -47 -6 -12 -7
-21 -3 -21 4 0 2 -4 -6 -9 -8 -5 -16 -15 -17 -23 -1 -7 -14 -40 -30 -73 -15
-33 -29 -66 -30 -73 -1 -8 -9 -21 -17 -30 -9 -10 -19 -29 -22 -45 -4 -15 -15
-32 -24 -37 -9 -5 -13 -10 -9 -10 10 0 -74 -155 -102 -187 -6 -7 -8 -13 -4
-13 4 0 0 -8 -8 -17 -8 -10 -26 -37 -38 -60 -13 -24 -27 -43 -32 -43 -4 0 -8
-4 -8 -10 0 -9 -39 -72 -60 -97 -5 -7 -10 -16 -10 -22 0 -5 -4 -11 -8 -13 -10
-4 -72 -96 -72 -107 0 -9 117 -41 150 -41 12 0 19 -3 17 -7 -3 -5 7 -9 21 -9
44 -2 136 -16 146 -22 5 -3 6 -1 3 5 -4 6 5 21 18 33 14 13 25 29 25 37 0 7 5
13 11 13 5 0 8 4 5 9 -3 5 1 12 10 15 8 3 13 10 10 15 -4 5 0 15 7 23 7 7 22
29 33 48 10 19 22 37 25 40 8 7 22 44 21 53 -1 4 2 7 7 7 5 0 19 21 32 48 12
26 25 49 28 52 11 10 96 184 93 192 -1 4 2 8 8 8 5 0 10 5 10 10 0 6 13 37 29
70 15 33 27 72 26 88 -2 29 -54 121 -92 162 -13 14 -23 28 -23 32 0 4 -11 18
-24 31 -14 14 -23 26 -22 28 8 9 -31 37 -41 31z"/>
<path d="M3161 2093 c-5 -10 -9 -21 -10 -26 0 -10 -110 -228 -122 -243 -5 -6
-6 -14 -2 -17 3 -4 -2 -9 -11 -13 -9 -3 -16 -11 -16 -16 0 -6 -21 -44 -47 -85
-50 -80 -48 -93 8 -89 16 1 29 0 29 -3 0 -12 190 -13 191 -2 2 15 6 30 9 34
13 14 20 347 8 370 -6 11 -5 17 2 17 7 0 8 5 3 13 -4 6 -8 19 -8 27 0 8 -4 21
-9 29 -7 10 -6 12 4 6 9 -5 11 -4 6 3 -10 17 -24 15 -35 -5z"/>
</g>
</svg>
